<svg width="200pt" height="60pt" viewBox="-1 -1 275 39" xmlns="http://www.w3.org/2000/svg">
    <g id="fontsvg1723862541202" stroke-linecap="round" fill-rule="evenodd" stroke-width="0.35mm" fill="#FFFFFF">
        <path d="M 272.95 20.55 L 272.95 31.55 A 4.818 4.818 0 0 1 272.762 32.929 A 3.814 3.814 0 0 1 271.85 34.5 A 3.676 3.676 0 0 1 269.402 35.634 A 4.999 4.999 0 0 1 269 35.65 A 4.017 4.017 0 0 1 267.561 35.4 A 3.605 3.605 0 0 1 266.2 34.475 Q 265.1 33.3 265.1 31.55 L 265.1 20.75 Q 265.1 19.379 264.586 18.499 A 2.795 2.795 0 0 0 263.95 17.75 A 3.932 3.932 0 0 0 262.453 16.995 Q 261.734 16.8 260.85 16.8 A 7.944 7.944 0 0 0 259.547 16.9 Q 258.225 17.12 257.4 17.825 Q 256.2 18.85 256.2 20.5 L 256.2 31.55 A 4.587 4.587 0 0 1 255.967 33.041 A 3.943 3.943 0 0 1 255.1 34.475 Q 254 35.65 252.3 35.65 A 4.336 4.336 0 0 1 250.939 35.445 A 3.583 3.583 0 0 1 249.45 34.5 A 3.921 3.921 0 0 1 248.389 32.202 A 5.344 5.344 0 0 1 248.35 31.55 L 248.35 14.65 A 4.483 4.483 0 0 1 248.598 13.136 A 3.929 3.929 0 0 1 249.475 11.725 Q 250.6 10.55 252.3 10.55 Q 253.5 10.55 254.425 11.225 A 3.282 3.282 0 0 1 255.52 12.631 A 4.32 4.32 0 0 1 255.7 13.15 L 255.7 13.2 L 256 13.2 Q 256.954 12.073 258.66 11.265 A 12.467 12.467 0 0 1 259.2 11.025 A 11.531 11.531 0 0 1 263.143 10.164 A 13.367 13.367 0 0 1 263.75 10.15 A 10.187 10.187 0 0 1 266.982 10.643 A 8.582 8.582 0 0 1 270.35 12.725 Q 272.448 14.802 272.853 18.62 A 18.292 18.292 0 0 1 272.95 20.55 Z M 55.3 14.6 L 55.3 31.7 Q 55.3 33.45 54.225 34.55 A 3.607 3.607 0 0 1 51.704 35.646 A 4.794 4.794 0 0 1 51.5 35.65 A 4.3 4.3 0 0 1 50.428 35.523 A 3.165 3.165 0 0 1 49.125 34.85 Q 48.2 34.05 48 32.9 L 48 32.85 L 47.7 32.85 A 3.285 3.285 0 0 1 47.082 33.617 Q 46.431 34.23 45.315 34.778 A 12.666 12.666 0 0 1 44.95 34.95 A 10.651 10.651 0 0 1 41.842 35.803 A 13.439 13.439 0 0 1 40.2 35.9 A 11.2 11.2 0 0 1 37.115 35.496 A 8.469 8.469 0 0 1 33.3 33.225 Q 30.7 30.55 30.7 25.45 L 30.7 14.6 Q 30.7 12.85 31.825 11.7 A 3.768 3.768 0 0 1 34.545 10.551 A 4.949 4.949 0 0 1 34.65 10.55 Q 36.35 10.55 37.45 11.7 A 3.929 3.929 0 0 1 38.533 14.172 A 5.232 5.232 0 0 1 38.55 14.6 L 38.55 25.25 A 5.41 5.41 0 0 0 38.768 26.857 Q 39.318 28.624 41.254 29.086 A 6.674 6.674 0 0 0 42.8 29.25 Q 44.381 29.25 45.444 28.719 A 3.637 3.637 0 0 0 46.25 28.175 A 3.769 3.769 0 0 0 47.06 27.173 A 3.237 3.237 0 0 0 47.45 25.6 L 47.45 14.6 A 4.578 4.578 0 0 1 47.661 13.184 A 3.826 3.826 0 0 1 48.55 11.7 A 3.673 3.673 0 0 1 51.179 10.553 A 4.895 4.895 0 0 1 51.35 10.55 A 4.336 4.336 0 0 1 52.711 10.755 A 3.583 3.583 0 0 1 54.2 11.7 A 3.929 3.929 0 0 1 55.283 14.172 A 5.232 5.232 0 0 1 55.3 14.6 Z M 161.05 25.45 L 147.8 25.45 A 6.217 6.217 0 0 0 148.546 27.13 A 5.084 5.084 0 0 0 150.025 28.625 Q 151.65 29.7 154.05 29.7 A 10.932 10.932 0 0 0 157.398 29.157 A 13.758 13.758 0 0 0 158.95 28.55 A 3.814 3.814 0 0 1 159.948 28.114 A 3.264 3.264 0 0 1 160.8 28 A 3.666 3.666 0 0 1 161.726 28.11 A 2.469 2.469 0 0 1 163.075 28.975 Q 163.85 29.95 163.85 31.1 Q 163.85 32.75 162 33.95 A 12.97 12.97 0 0 1 160.078 34.877 A 17.311 17.311 0 0 1 158.225 35.475 A 17.477 17.477 0 0 1 154.856 36.01 A 20.666 20.666 0 0 1 153.55 36.05 A 17.041 17.041 0 0 1 149.694 35.631 A 13.593 13.593 0 0 1 146.325 34.375 Q 143.2 32.7 141.475 29.75 A 12.693 12.693 0 0 1 139.795 24.231 A 15.52 15.52 0 0 1 139.75 23.05 A 12.857 12.857 0 0 1 140.536 18.517 A 11.979 11.979 0 0 1 141.575 16.4 Q 143.4 13.45 146.475 11.8 Q 149.55 10.15 153.15 10.15 A 14.512 14.512 0 0 1 157.834 10.894 A 13.477 13.477 0 0 1 159.325 11.5 A 11.883 11.883 0 0 1 162.538 13.713 A 10.855 10.855 0 0 1 163.825 15.225 Q 165.5 17.6 165.5 20.55 A 6.305 6.305 0 0 1 165.333 22.044 A 4.25 4.25 0 0 1 164.15 24.15 A 4.761 4.761 0 0 1 162.773 25.094 A 4.215 4.215 0 0 1 161.05 25.45 Z M 241.15 25.45 L 227.9 25.45 A 6.217 6.217 0 0 0 228.646 27.13 A 5.084 5.084 0 0 0 230.125 28.625 Q 231.75 29.7 234.15 29.7 A 10.932 10.932 0 0 0 237.498 29.157 A 13.758 13.758 0 0 0 239.05 28.55 A 3.814 3.814 0 0 1 240.048 28.114 A 3.264 3.264 0 0 1 240.9 28 A 3.666 3.666 0 0 1 241.826 28.11 A 2.469 2.469 0 0 1 243.175 28.975 Q 243.95 29.95 243.95 31.1 Q 243.95 32.75 242.1 33.95 A 12.97 12.97 0 0 1 240.178 34.877 A 17.311 17.311 0 0 1 238.325 35.475 A 17.477 17.477 0 0 1 234.956 36.01 A 20.666 20.666 0 0 1 233.65 36.05 A 17.041 17.041 0 0 1 229.794 35.631 A 13.593 13.593 0 0 1 226.425 34.375 Q 223.3 32.7 221.575 29.75 A 12.693 12.693 0 0 1 219.895 24.231 A 15.52 15.52 0 0 1 219.85 23.05 A 12.857 12.857 0 0 1 220.636 18.517 A 11.979 11.979 0 0 1 221.675 16.4 Q 223.5 13.45 226.575 11.8 Q 229.65 10.15 233.25 10.15 A 14.512 14.512 0 0 1 237.934 10.894 A 13.477 13.477 0 0 1 239.425 11.5 A 11.883 11.883 0 0 1 242.638 13.713 A 10.855 10.855 0 0 1 243.925 15.225 Q 245.6 17.6 245.6 20.55 A 6.305 6.305 0 0 1 245.433 22.044 A 4.25 4.25 0 0 1 244.25 24.15 A 4.761 4.761 0 0 1 242.873 25.094 A 4.215 4.215 0 0 1 241.15 25.45 Z M 201.85 10.55 L 201.85 8.5 A 10.195 10.195 0 0 1 202.242 5.61 A 8.053 8.053 0 0 1 204.05 2.4 A 6.679 6.679 0 0 1 206.738 0.658 Q 207.807 0.267 209.126 0.109 A 16.148 16.148 0 0 1 211.05 0 L 214 0 A 5.843 5.843 0 0 1 215.149 0.106 Q 215.845 0.246 216.388 0.569 A 3.297 3.297 0 0 1 216.85 0.9 A 2.908 2.908 0 0 1 217.798 2.516 A 4.458 4.458 0 0 1 217.9 3.5 A 4.161 4.161 0 0 1 217.776 4.546 A 2.883 2.883 0 0 1 216.85 6.05 Q 215.8 6.95 214 6.95 L 211.8 6.95 A 2.574 2.574 0 0 0 210.885 7.1 Q 209.65 7.568 209.65 9.5 L 209.65 10.55 L 213.1 10.55 A 5.355 5.355 0 0 1 214.253 10.667 Q 215.215 10.879 215.875 11.475 A 3.008 3.008 0 0 1 216.795 13.091 A 4.574 4.574 0 0 1 216.9 14.1 Q 216.9 15.8 215.875 16.725 Q 214.889 17.616 213.23 17.649 A 6.469 6.469 0 0 1 213.1 17.65 L 209.65 17.65 L 209.65 31.6 A 4.578 4.578 0 0 1 209.44 33.017 A 3.826 3.826 0 0 1 208.55 34.5 A 3.673 3.673 0 0 1 205.921 35.647 A 4.895 4.895 0 0 1 205.75 35.65 Q 204.05 35.65 202.95 34.5 A 3.929 3.929 0 0 1 201.868 32.028 A 5.232 5.232 0 0 1 201.85 31.6 L 201.85 17.65 L 201.1 17.65 A 5.355 5.355 0 0 1 199.948 17.533 Q 198.986 17.321 198.325 16.725 A 3.008 3.008 0 0 1 197.405 15.11 A 4.574 4.574 0 0 1 197.3 14.1 Q 197.3 12.4 198.325 11.475 Q 199.312 10.585 200.971 10.551 A 6.469 6.469 0 0 1 201.1 10.55 L 201.85 10.55 Z M 128.5 13 L 128.8 13 L 128.8 4.4 A 4.483 4.483 0 0 1 129.048 2.886 A 3.929 3.929 0 0 1 129.925 1.475 Q 131.05 0.3 132.75 0.3 A 4.017 4.017 0 0 1 134.19 0.55 A 3.605 3.605 0 0 1 135.55 1.475 Q 136.65 2.65 136.65 4.4 L 136.65 23.55 A 13.419 13.419 0 0 1 136.151 27.274 A 11.342 11.342 0 0 1 134.875 30.15 Q 133.1 33 130.075 34.525 A 14.426 14.426 0 0 1 123.787 36.047 A 16.81 16.81 0 0 1 123.45 36.05 A 15.89 15.89 0 0 1 118.976 35.437 A 13.984 13.984 0 0 1 116.4 34.4 Q 113.25 32.75 111.45 29.75 A 12.573 12.573 0 0 1 109.793 24.921 A 16.085 16.085 0 0 1 109.65 22.75 Q 109.65 19 111.2 16.15 Q 112.75 13.3 115.425 11.725 Q 118.1 10.15 121.35 10.15 Q 123.313 10.15 124.752 10.643 A 6.671 6.671 0 0 1 125.5 10.95 Q 127.15 11.75 128.5 13 Z M 62.6 10.55 L 62.6 6.55 A 4.939 4.939 0 0 1 62.778 5.195 A 3.838 3.838 0 0 1 63.675 3.6 A 3.574 3.574 0 0 1 66.021 2.473 A 4.923 4.923 0 0 1 66.5 2.45 A 4.323 4.323 0 0 1 67.811 2.64 A 3.481 3.481 0 0 1 69.325 3.6 A 3.937 3.937 0 0 1 70.349 5.794 A 5.384 5.384 0 0 1 70.4 6.55 L 70.4 10.55 L 73.55 10.55 A 4.856 4.856 0 0 1 74.855 10.717 A 3.728 3.728 0 0 1 76.35 11.525 A 3.211 3.211 0 0 1 77.441 13.806 A 4.412 4.412 0 0 1 77.45 14.1 A 3.767 3.767 0 0 1 77.262 15.318 A 3.139 3.139 0 0 1 76.35 16.675 A 3.822 3.822 0 0 1 74.363 17.589 A 5.227 5.227 0 0 1 73.55 17.65 L 70.4 17.65 L 70.4 25.6 Q 70.4 28.141 72.281 28.456 A 3.452 3.452 0 0 0 72.85 28.5 L 73.65 28.5 A 5.209 5.209 0 0 1 74.813 28.622 Q 75.768 28.841 76.425 29.45 A 3.112 3.112 0 0 1 77.355 31.134 A 4.652 4.652 0 0 1 77.45 32.1 Q 77.45 33.8 76.425 34.725 Q 75.439 35.616 73.78 35.649 A 6.469 6.469 0 0 1 73.65 35.65 L 72.05 35.65 Q 64.513 35.65 62.988 29.448 A 14.886 14.886 0 0 1 62.6 25.9 L 62.6 17.65 L 61.85 17.65 A 5.08 5.08 0 0 1 60.686 17.524 A 3.425 3.425 0 0 1 59.075 16.675 A 3.25 3.25 0 0 1 58.082 14.643 A 4.524 4.524 0 0 1 58.05 14.1 A 4.048 4.048 0 0 1 58.213 12.924 A 3.163 3.163 0 0 1 59.075 11.525 A 3.431 3.431 0 0 1 60.709 10.671 A 5.102 5.102 0 0 1 61.85 10.55 L 62.6 10.55 Z M 27 21.35 L 27 31.6 A 5.041 5.041 0 0 1 26.84 32.903 A 3.758 3.758 0 0 1 25.95 34.525 A 3.472 3.472 0 0 1 23.916 35.586 A 4.995 4.995 0 0 1 23.1 35.65 Q 21.55 35.65 20.575 34.775 A 2.881 2.881 0 0 1 19.604 32.673 A 3.884 3.884 0 0 1 19.6 32.5 L 19.6 32.4 L 19.2 32.4 A 5.789 5.789 0 0 1 18.009 33.854 Q 17.33 34.463 16.4 34.975 A 8.365 8.365 0 0 1 13.953 35.844 Q 12.92 36.047 11.738 36.05 A 14.094 14.094 0 0 1 11.7 36.05 Q 8.5 36.05 5.825 34.475 A 11.348 11.348 0 0 1 1.675 30.204 A 13.408 13.408 0 0 1 1.575 30.025 A 12.777 12.777 0 0 1 0.128 25.468 A 16.239 16.239 0 0 1 0 23.4 A 14.821 14.821 0 0 1 0.457 19.65 A 12.079 12.079 0 0 1 1.825 16.4 Q 3.65 13.4 6.825 11.775 A 14.939 14.939 0 0 1 12.684 10.191 A 17.941 17.941 0 0 1 13.9 10.15 A 17.11 17.11 0 0 1 18.107 10.651 A 14.751 14.751 0 0 1 20.55 11.5 Q 23.55 12.85 25.275 15.4 Q 27 17.95 27 21.35 Z M 194.55 21.35 L 194.55 31.6 A 5.041 5.041 0 0 1 194.39 32.903 A 3.758 3.758 0 0 1 193.5 34.525 A 3.472 3.472 0 0 1 191.466 35.586 A 4.995 4.995 0 0 1 190.65 35.65 Q 189.1 35.65 188.125 34.775 A 2.881 2.881 0 0 1 187.154 32.673 A 3.884 3.884 0 0 1 187.15 32.5 L 187.15 32.4 L 186.75 32.4 A 5.789 5.789 0 0 1 185.559 33.854 Q 184.88 34.463 183.95 34.975 A 8.365 8.365 0 0 1 181.503 35.844 Q 180.47 36.047 179.288 36.05 A 14.094 14.094 0 0 1 179.25 36.05 Q 176.05 36.05 173.375 34.475 A 11.348 11.348 0 0 1 169.225 30.204 A 13.408 13.408 0 0 1 169.125 30.025 A 12.777 12.777 0 0 1 167.678 25.468 A 16.239 16.239 0 0 1 167.55 23.4 A 14.821 14.821 0 0 1 168.007 19.65 A 12.079 12.079 0 0 1 169.375 16.4 Q 171.2 13.4 174.375 11.775 A 14.939 14.939 0 0 1 180.234 10.191 A 17.941 17.941 0 0 1 181.45 10.15 A 17.11 17.11 0 0 1 185.657 10.651 A 14.751 14.751 0 0 1 188.1 11.5 Q 191.1 12.85 192.825 15.4 Q 194.55 17.95 194.55 21.35 Z M 89.184 35.412 A 15.224 15.224 0 0 0 93.65 36.05 Q 97.5 36.05 100.625 34.375 Q 103.75 32.7 105.55 29.75 Q 107.35 26.8 107.35 23.1 A 14.862 14.862 0 0 0 107.339 22.527 A 12.381 12.381 0 0 0 105.55 16.45 Q 103.75 13.5 100.625 11.825 A 13.715 13.715 0 0 0 98.18 10.804 A 15.298 15.298 0 0 0 93.65 10.15 Q 89.8 10.15 86.7 11.825 Q 83.6 13.5 81.8 16.45 Q 80 19.4 80 23.1 A 14.862 14.862 0 0 0 80.011 23.674 A 12.381 12.381 0 0 0 81.8 29.75 Q 83.6 32.7 86.7 34.375 A 13.502 13.502 0 0 0 89.184 35.412 Z M 19.2 24.25 L 19.2 22 Q 19.2 20.046 18.334 18.826 A 3.933 3.933 0 0 0 17.725 18.15 Q 16.325 16.916 14.002 16.853 A 9.321 9.321 0 0 0 13.75 16.85 A 7.634 7.634 0 0 0 12.02 17.034 Q 10.81 17.316 9.951 18.028 A 4.557 4.557 0 0 0 9.375 18.6 A 6.063 6.063 0 0 0 8.116 21.179 Q 7.907 22.08 7.901 23.132 A 10.932 10.932 0 0 0 7.9 23.2 A 9.784 9.784 0 0 0 8.057 25.011 Q 8.25 26.032 8.678 26.832 A 4.934 4.934 0 0 0 9.375 27.825 Q 10.85 29.45 13.5 29.45 Q 15.95 29.45 17.575 28.1 A 4.382 4.382 0 0 0 19.099 25.428 A 6.521 6.521 0 0 0 19.2 24.25 Z M 186.75 24.25 L 186.75 22 Q 186.75 20.046 185.884 18.826 A 3.933 3.933 0 0 0 185.275 18.15 Q 183.875 16.916 181.552 16.853 A 9.321 9.321 0 0 0 181.3 16.85 A 7.634 7.634 0 0 0 179.57 17.034 Q 178.36 17.316 177.501 18.028 A 4.557 4.557 0 0 0 176.925 18.6 A 6.063 6.063 0 0 0 175.666 21.179 Q 175.457 22.08 175.451 23.132 A 10.932 10.932 0 0 0 175.45 23.2 A 9.784 9.784 0 0 0 175.607 25.011 Q 175.8 26.032 176.228 26.832 A 4.934 4.934 0 0 0 176.925 27.825 Q 178.4 29.45 181.05 29.45 Q 183.5 29.45 185.125 28.1 A 4.382 4.382 0 0 0 186.649 25.428 A 6.521 6.521 0 0 0 186.75 24.25 Z M 128.85 23.95 L 128.85 21.95 Q 128.85 19.45 127.225 18.1 A 5.783 5.783 0 0 0 124.359 16.84 A 7.857 7.857 0 0 0 123.15 16.75 A 6.934 6.934 0 0 0 121.432 16.951 A 4.762 4.762 0 0 0 119.025 18.375 Q 117.774 19.754 117.584 22.123 A 11.003 11.003 0 0 0 117.55 23 A 8.521 8.521 0 0 0 117.761 24.949 A 5.915 5.915 0 0 0 119.05 27.525 Q 120.508 29.202 123.289 29.249 A 9.556 9.556 0 0 0 123.45 29.25 A 6.721 6.721 0 0 0 125.188 29.037 A 5.01 5.01 0 0 0 127.35 27.85 A 4.585 4.585 0 0 0 128.704 25.405 A 6.845 6.845 0 0 0 128.85 23.95 Z M 87.9 23.1 A 7.451 7.451 0 0 0 88.187 25.211 A 5.937 5.937 0 0 0 89.45 27.5 A 5.103 5.103 0 0 0 92.771 29.198 A 7.238 7.238 0 0 0 93.65 29.25 Q 96.3 29.25 97.875 27.5 A 6.078 6.078 0 0 0 99.395 24.062 A 8.138 8.138 0 0 0 99.45 23.1 A 7.329 7.329 0 0 0 99.154 20.971 A 5.91 5.91 0 0 0 97.875 18.7 A 5.2 5.2 0 0 0 94.472 16.995 A 7.305 7.305 0 0 0 93.65 16.95 A 6.466 6.466 0 0 0 91.783 17.207 A 4.969 4.969 0 0 0 89.45 18.7 A 6.107 6.107 0 0 0 87.964 22.061 A 8.208 8.208 0 0 0 87.9 23.1 Z M 147.8 20.4 L 158.05 20.4 A 4.567 4.567 0 0 0 156.881 17.6 A 5.943 5.943 0 0 0 156.6 17.3 A 4.54 4.54 0 0 0 153.972 16.015 A 6.352 6.352 0 0 0 153.05 15.95 A 5.264 5.264 0 0 0 151.199 16.267 A 4.748 4.748 0 0 0 149.725 17.15 A 5.939 5.939 0 0 0 148.2 19.258 A 7.851 7.851 0 0 0 147.8 20.4 Z M 227.9 20.4 L 238.15 20.4 A 4.567 4.567 0 0 0 236.981 17.6 A 5.943 5.943 0 0 0 236.7 17.3 A 4.54 4.54 0 0 0 234.072 16.015 A 6.352 6.352 0 0 0 233.15 15.95 A 5.264 5.264 0 0 0 231.299 16.267 A 4.748 4.748 0 0 0 229.825 17.15 A 5.939 5.939 0 0 0 228.3 19.258 A 7.851 7.851 0 0 0 227.9 20.4 Z"
              vector-effect="non-scaling-stroke"/>
    </g>
</svg>